<svg width="22" height="15" viewBox="0 0 22 15" fill="none" xmlns="http://www.w3.org/2000/svg">
<path d="M6.39887 0.350098C7.03388 0.350098 7.62004 0.399568 8.15734 0.547978C8.69466 0.646918 9.13425 0.844798 9.52508 1.09215C9.91581 1.3395 10.2089 1.68578 10.4043 2.13101C10.5996 2.57624 10.6974 3.12041 10.6974 3.71405C10.6974 4.40663 10.5509 5.00032 10.2089 5.44552C9.91581 5.89072 9.42735 6.28652 8.8412 6.58332C9.67158 6.83062 10.3065 7.27592 10.6974 7.86952C11.0881 8.46312 11.3323 9.20522 11.3323 10.0462C11.3323 10.7388 11.1858 11.3324 10.9416 11.8271C10.6974 12.3218 10.3065 12.767 9.86694 13.0639C9.42735 13.3607 8.89004 13.608 8.30389 13.7564C7.71773 13.9048 7.13157 14.0038 6.54541 14.0038H0V0.350098H6.39887ZM6.00811 5.89072C6.54541 5.89072 6.98504 5.74232 7.32696 5.49502C7.66888 5.24762 7.81542 4.80239 7.81542 4.25822C7.81542 3.9614 7.76657 3.66458 7.66888 3.4667C7.57119 3.26882 7.42465 3.12041 7.22927 2.972C7.03388 2.87306 6.8385 2.77412 6.59426 2.72465C6.35003 2.67518 6.1058 2.67518 5.81272 2.67518H2.97963V5.89072H6.00811ZM6.15464 11.7282C6.44772 11.7282 6.74081 11.6787 6.98504 11.6292C7.22927 11.5798 7.4735 11.4808 7.66888 11.3324C7.86427 11.184 8.0108 11.0356 8.15734 10.7882C8.25504 10.5409 8.35274 10.2441 8.35274 9.89782C8.35274 9.20522 8.15735 8.71052 7.76657 8.36422C7.3758 8.06742 6.8385 7.91902 6.20349 7.91902H2.97963V11.7282H6.15464ZM15.582 11.6787C15.9728 12.0745 16.5589 12.2723 17.3405 12.2723C17.8778 12.2723 18.3662 12.1239 18.757 11.8766C19.1478 11.5798 19.392 11.2829 19.4898 10.9861H21.8832C21.4924 12.1734 20.9063 13.0144 20.1247 13.5586C19.3432 14.0533 18.4151 14.3501 17.2916 14.3501C16.51 14.3501 15.8262 14.2017 15.1912 13.9543C14.5562 13.707 14.0677 13.3607 13.6281 12.866C13.1885 12.4207 12.8466 11.8766 12.6512 11.2335C12.407 10.5904 12.3092 9.89782 12.3092 9.10632C12.3092 8.36422 12.407 7.67162 12.6512 7.02852C12.8954 6.38542 13.2374 5.84122 13.677 5.34652C14.1166 4.90133 14.6539 4.50557 15.2401 4.25822C15.8751 4.01087 16.51 3.86246 17.2916 3.86246C18.122 3.86246 18.8547 4.01087 19.4898 4.35716C20.1247 4.70345 20.6132 5.09922 21.0039 5.69282C21.3947 6.23702 21.6878 6.88012 21.8832 7.57272C21.9808 8.26532 22.0297 8.95782 21.9808 9.74942H14.8981C14.8981 10.5409 15.1912 11.2829 15.582 11.6787ZM18.6593 6.48442C18.3174 6.13812 17.78 5.94022 17.1451 5.94022C16.7055 5.94022 16.3635 6.03912 16.0704 6.18752C15.7773 6.33592 15.582 6.53382 15.3866 6.73172C15.1912 6.92962 15.0935 7.17692 15.0446 7.42432C14.9959 7.67162 14.947 7.86952 14.947 8.06742H19.3432C19.2455 7.32532 19.0012 6.83062 18.6593 6.48442ZM14.3608 1.29002H19.8316V2.62571H14.3608V1.29002Z" fill="black"/>
</svg>
