<svg width="22" height="22" viewBox="0 0 22 22" fill="none" xmlns="http://www.w3.org/2000/svg">
<path d="M15.1585 22V13.4865H18.0091L18.4358 10.1768H15.1585V8.06379C15.1585 7.10556 15.4244 6.45253 16.7986 6.45253L18.5513 6.45171V3.4916C18.248 3.45134 17.2078 3.36118 15.9974 3.36118C13.4705 3.36118 11.7407 4.90353 11.7407 7.73608V10.1768H8.88274V13.4865H11.7407V22H1.22222C0.547213 22 0 21.4528 0 20.7778V1.22222C0 0.547213 0.547213 0 1.22222 0H20.7778C21.4528 0 22 0.547213 22 1.22222V20.7778C22 21.4528 21.4528 22 20.7778 22H15.1585Z" fill="black"/>
</svg>
