<svg width="22" height="22" viewBox="0 0 22 22" fill="none" xmlns="http://www.w3.org/2000/svg">
<path d="M12.1312 0.000732422C13.3692 0.0027785 13.9966 0.00933476 14.5387 0.0254724L14.7522 0.0324466C14.9988 0.041214 15.2421 0.0522142 15.5355 0.0659647C16.7061 0.120054 17.5046 0.305223 18.2058 0.577483C18.9309 0.857081 19.5433 1.23476 20.1547 1.8462C20.7652 2.45764 21.1429 3.07182 21.4235 3.7951C21.6947 4.49546 21.88 5.29483 21.935 6.46545C21.9481 6.7588 21.9586 7.00212 21.9673 7.2488L21.9742 7.4623C21.9903 8.00434 21.9977 8.63179 22 9.86982L22.0009 10.69C22.001 10.7902 22.001 10.8936 22.001 11.0003L22.0002 12.131C21.9981 13.3689 21.9916 13.9964 21.9755 14.5384L21.9684 14.7519C21.9597 14.9986 21.9487 15.242 21.935 15.5352C21.8809 16.7059 21.6947 17.5043 21.4235 18.2056C21.1438 18.9307 20.7652 19.5431 20.1547 20.1545C19.5433 20.7651 18.9281 21.1427 18.2058 21.4232C17.5046 21.6946 16.7061 21.8797 15.5355 21.9347C15.2421 21.9478 14.9988 21.9585 14.7522 21.9671L14.5387 21.974C13.9966 21.9902 13.3692 21.9974 12.1312 21.9999L11.3109 22.0007C11.2107 22.0007 11.1073 22.0007 11.0006 22.0007L9.86998 22C8.632 21.998 8.00456 21.9914 7.46252 21.9752L7.24902 21.9683C7.00234 21.9595 6.75901 21.9485 6.46568 21.9347C5.29505 21.8807 4.49752 21.6946 3.79534 21.4232C3.07114 21.1437 2.45787 20.7651 1.84643 20.1545C1.235 19.5431 0.858236 18.928 0.577726 18.2056C0.305467 17.5043 0.121211 16.7059 0.066209 15.5352C0.0531405 15.242 0.042481 14.9986 0.0338457 14.7519L0.0269265 14.5384C0.010833 13.9964 0.00349584 13.3689 0.00111976 12.131L0.000976562 9.86982C0.00302263 8.63179 0.00956787 8.00434 0.0257054 7.4623L0.0326907 7.2488C0.041458 7.00212 0.0524585 6.7588 0.066209 6.46545C0.120287 5.29391 0.305467 4.49638 0.577726 3.7951C0.857312 3.07091 1.235 2.45764 1.84643 1.8462C2.45787 1.23476 3.07206 0.857994 3.79534 0.577483C4.49661 0.305223 5.29414 0.120967 6.46568 0.0659647C6.75901 0.0529073 7.00234 0.042248 7.24902 0.0336127L7.46252 0.0266932C8.00456 0.0105886 8.632 0.00325145 9.86998 0.000875359L12.1312 0.000732422ZM11.0006 5.50016C7.96129 5.50016 5.50039 7.96374 5.50039 11.0003C5.50039 14.0396 7.96396 16.5005 11.0006 16.5005C14.0399 16.5005 16.5008 14.037 16.5008 11.0003C16.5008 7.96106 14.0371 5.50016 11.0006 5.50016ZM11.0006 7.70024C12.8233 7.70024 14.3007 9.17723 14.3007 11.0003C14.3007 12.823 12.8237 14.3005 11.0006 14.3005C9.17795 14.3005 7.70047 12.8235 7.70047 11.0003C7.70047 9.17767 9.1774 7.70024 11.0006 7.70024ZM16.7758 3.8501C16.0175 3.8501 15.4008 4.46603 15.4008 5.22422C15.4008 5.98242 16.0167 6.59929 16.7758 6.59929C17.5339 6.59929 18.1508 5.98338 18.1508 5.22422C18.1508 4.46603 17.533 3.84916 16.7758 3.8501Z" fill="black"/>
</svg>
